<?xml version="1.0" encoding="UTF-8" standalone="no"?>
<!-- Created with Inkscape (http://www.inkscape.org/) -->

<svg
   xmlns:dc="http://purl.org/dc/elements/1.1/"
   xmlns:cc="http://creativecommons.org/ns#"
   xmlns:rdf="http://www.w3.org/1999/02/22-rdf-syntax-ns#"
   xmlns:svg="http://www.w3.org/2000/svg"
   xmlns="http://www.w3.org/2000/svg"
   xmlns:xlink="http://www.w3.org/1999/xlink"
   xmlns:sodipodi="http://sodipodi.sourceforge.net/DTD/sodipodi-0.dtd"
   xmlns:inkscape="http://www.inkscape.org/namespaces/inkscape"
   width="1200"
   height="1200"
   viewBox="0 0 600 600"
   version="1.1"
   id="svg1079"
   inkscape:version="0.92.5 (2060ec1f9f, 2020-04-08)"
   sodipodi:docname="globe-connected.svg"
   inkscape:export-filename="D:\workstation\Empresas\goleta\clientes\designhill\sruvcon\survcon-geomatics-inc.png"
   inkscape:export-xdpi="299"
   inkscape:export-ydpi="299">
  <defs
     id="defs2">
    <color-profile
       id="color-profile-globe-connected"
       xlink:href="C:\Windows\system32\spool\drivers\color\sRGB_v4_ICC_preference_displayclass.icc"
       name="sRGB-v4-ICC-preference-perceptual-intent-beta-display-class" />
  </defs>
  <sodipodi:namedview
     id="base"
     pagecolor="#ffffff"
     bordercolor="#666666"
     borderopacity="1.0"
     inkscape:pageopacity="0.0"
     inkscape:pageshadow="2"
     inkscape:zoom="0.24748737"
     inkscape:cx="-124.39603"
     inkscape:cy="627.98481"
     inkscape:document-units="px"
     inkscape:current-layer="layer-globe-connected"
     showgrid="false"
     units="px"
     inkscape:window-width="1600"
     inkscape:window-height="837"
     inkscape:window-x="-4"
     inkscape:window-y="-4"
     inkscape:window-maximized="1"
     showguides="true"
     inkscape:guide-bbox="true"
     inkscape:snap-bbox="true"
     inkscape:bbox-nodes="true"
     inkscape:bbox-paths="true"
     inkscape:snap-bbox-midpoints="true"
     inkscape:snap-bbox-edge-midpoints="true"
     inkscape:snap-global="true" />
  <metadata
     id="metadata-globe-connected">
    <rdf:RDF>
      <cc:Work
         rdf:about="">
        <dc:format>image/svg+xml</dc:format>
        <dc:type
           rdf:resource="http://purl.org/dc/dcmitype/StillImage" />
        <dc:title></dc:title>
        <cc:license
           rdf:resource="http://creativecommons.org/publicdomain/zero/1.0/" />
        <dc:date>25/02/21</dc:date>
        <dc:rights>
          <cc:Agent>
            <dc:title>-</dc:title>
          </cc:Agent>
        </dc:rights>
        <dc:creator>
          <cc:Agent>
            <dc:title>La Goleta</dc:title>
          </cc:Agent>
        </dc:creator>
        <dc:publisher>
          <cc:Agent>
            <dc:title>David R. Digan</dc:title>
          </cc:Agent>
        </dc:publisher>
        <dc:source>Bahía Blanca</dc:source>
        <dc:language></dc:language>
      </cc:Work>
      <cc:License
         rdf:about="http://creativecommons.org/publicdomain/zero/1.0/">
        <cc:permits
           rdf:resource="http://creativecommons.org/ns#Reproduction" />
        <cc:permits
           rdf:resource="http://creativecommons.org/ns#Distribution" />
        <cc:permits
           rdf:resource="http://creativecommons.org/ns#DerivativeWorks" />
      </cc:License>
    </rdf:RDF>
  </metadata>
  <g
     inkscape:label="Capa 1"
     inkscape:groupmode="layer"
     id="layer-globe-connected"
     transform="translate(0,20.500017)">
    <g
       id="globe-connected"
       transform="matrix(0,-2.9795937,2.9795937,0,-760.1742,1582.7365)">
      <path
         transform="matrix(0.5,0,0,0.5,0,-20.500017)"
         inkscape:connector-curvature="0"
         id="path2352"
         d="m 823.30986,776.70947 c -26.60762,-3.16534 -57.45882,-10.02692 -74.403,-16.54789 l -8.23801,-3.1704 0.98482,-3.73621 c 8.79418,-33.36323 21.58631,-62.25187 40.40639,-91.25029 l 6.97191,-10.74248 10.32042,3.34402 c 10.45889,3.3889 25.6774,6.76464 36.41645,8.07782 5.39493,0.65971 5.83966,0.90197 5.26199,2.86649 -0.34706,1.18023 -0.90117,13.05552 -1.23135,26.38954 -0.6458,26.0796 0.4163,45.75981 3.76009,69.67292 1.0855,7.76299 1.97365,14.69516 1.97365,15.40482 0,1.64095 -6.60854,1.54926 -22.22336,-0.30834 z"
         style="opacity:1;fill:#333333;fill-opacity:1;fill-rule:evenodd;stroke:none;stroke-width:6.06091547;stroke-linecap:square;stroke-linejoin:miter;stroke-miterlimit:4;stroke-dasharray:none;stroke-dashoffset:0;stroke-opacity:1;paint-order:markers stroke fill" />
      <path
         transform="matrix(0.5,0,0,0.5,0,-20.500017)"
         inkscape:connector-curvature="0"
         id="path2354"
         d="m 852.29385,772.86426 c -4.35086,-24.98453 -6.65252,-57.30334 -5.79937,-81.43201 0.34384,-9.72423 0.92015,-19.83261 1.28069,-22.46308 l 0.65554,-4.78266 14.7642,0.55699 c 8.12031,0.30634 19.43309,0.17385 25.13951,-0.29443 l 10.3753,-0.85142 0.95863,3.56461 c 2.41563,8.98239 8.36509,41.39885 11.08518,60.39917 2.64891,18.5031 6.1833,48.9274 5.73959,49.40686 -0.63015,0.68097 -34.07964,2.34997 -47.09696,2.34997 h -15.97839 z"
         style="opacity:1;fill:#333333;fill-opacity:1;fill-rule:evenodd;stroke:none;stroke-width:6.06091547;stroke-linecap:square;stroke-linejoin:miter;stroke-miterlimit:4;stroke-dasharray:none;stroke-dashoffset:0;stroke-opacity:1;paint-order:markers stroke fill" />
      <path
         transform="matrix(0.5,0,0,0.5,0,-20.500017)"
         inkscape:connector-curvature="0"
         id="path2356"
         d="m 923.49913,775.07336 c -0.21755,-0.72102 -0.91915,-7.15014 -1.55912,-14.28694 -1.72358,-19.22108 -6.623,-51.9484 -11.28956,-75.41234 -2.26516,-11.38947 -4.18341,-21.10954 -4.26277,-21.60015 -0.0794,-0.49061 4.40139,-1.68749 9.95723,-2.65972 10.38973,-1.81814 26.01273,-5.68855 28.90828,-7.16169 1.11473,-0.56713 4.68016,0.63785 11.21724,3.79101 l 9.58309,4.62241 -1.29041,6.20077 c -2.81524,13.52798 -3.74209,27.40919 -3.14568,47.11194 0.60015,19.8259 1.26841,26.40995 4.33543,42.71499 0.91817,4.88118 1.42879,9.11546 1.13473,9.40953 -1.08655,1.08656 -17.37002,4.36945 -39.89673,8.04352 -2.20877,0.36025 -3.42667,0.10513 -3.69173,-0.77333 z"
         style="opacity:1;fill='#333333';fill-opacity:1;fill-rule:evenodd;stroke:none;stroke-width:6.06091547;stroke-linecap:square;stroke-linejoin:miter;stroke-miterlimit:4;stroke-dasharray:none;stroke-dashoffset:0;stroke-opacity:1;paint-order:markers stroke fill" />
      <path
         transform="matrix(0.5,0,0,0.5,0,-20.500017)"
         inkscape:connector-curvature="0"
         id="path2358"
         d="m 973.40776,760.57856 c -4.84245,-23.32598 -6.45047,-59.1753 -3.57491,-79.69979 0.93018,-6.63929 2.01459,-12.64922 2.40979,-13.3554 0.51949,-0.92828 3.59499,0.5152 11.10208,5.21072 19.92308,12.46145 38.82568,28.83621 51.71658,44.80059 10.0744,12.47619 10.164,12.72131 5.9691,16.32626 -12.7664,10.97105 -32.4956,21.43929 -53.24688,28.25266 -6.82223,2.23998 -12.58575,4.07268 -12.80783,4.07268 -0.22207,0 -0.92764,-2.52347 -1.56793,-5.60772 z"
         style="opacity:1;fill:#333333;fill-opacity:1;fill-rule:evenodd;stroke:none;stroke-width:6.06091547;stroke-linecap:square;stroke-linejoin:miter;stroke-miterlimit:4;stroke-dasharray:none;stroke-dashoffset:0;stroke-opacity:1;paint-order:markers stroke fill" />
      <path
         transform="matrix(0.5,0,0,0.5,0,-20.500017)"
         inkscape:connector-curvature="0"
         id="path2360"
         d="m 1040.5937,713.01219 c -11.456,-14.94922 -33.8911,-34.14003 -55.99578,-47.89835 -11.27815,-7.01969 -10.69845,-5.69729 -6.94288,-15.83811 1.07725,-2.90878 3.78956,-8.03053 6.02736,-11.38166 l 4.06873,-6.09297 5.88348,5.09694 c 23.12909,20.03707 50.04129,59.64423 51.98539,76.50777 0.4004,3.4724 0.5696,6.28731 0.3762,6.25537 -0.1935,-0.0319 -2.6246,-3.024 -5.4025,-6.64899 z"
         style="opacity:1;fill:#333333;fill-opacity:1;fill-rule:evenodd;stroke:none;stroke-width:6.06091547;stroke-linecap:square;stroke-linejoin:miter;stroke-miterlimit:4;stroke-dasharray:none;stroke-dashoffset:0;stroke-opacity:1;paint-order:markers stroke fill" />
      <path
         transform="matrix(0.5,0,0,0.5,0,-20.500017)"
         inkscape:connector-curvature="0"
         id="path2362"
         d="m 961.88607,652.39222 -4.96647,-2.58321 7.43242,-3.911 c 4.08784,-2.15104 7.62072,-3.72269 7.85086,-3.49255 0.52272,0.52271 -4.14158,12.6814 -4.84012,12.61701 -0.28062,-0.0259 -2.74513,-1.20948 -5.47669,-2.63025 z"
         style="opacity:1;fill:#333333;fill-opacity:1;fill-rule:evenodd;stroke:none;stroke-width:6.06091547;stroke-linecap:square;stroke-linejoin:miter;stroke-miterlimit:4;stroke-dasharray:none;stroke-dashoffset:0;stroke-opacity:1;paint-order:markers stroke fill" />
      <path
         transform="matrix(0.5,0,0,0.5,0,-20.500017)"
         inkscape:connector-curvature="0"
         id="path2364"
         d="m 944.83078,644.8503 c -3.10035,-1.78974 -23.86668,-8.97896 -36.06201,-12.48454 l -11.61676,-3.33926 -4.73707,-13.25757 c -2.60539,-7.29167 -6.80926,-17.87311 -9.34195,-23.51432 -2.53268,-5.6412 -4.49211,-10.35564 -4.3543,-10.47652 0.13782,-0.12088 5.31843,0.83177 11.51247,2.11701 17.10268,3.54874 35.53944,10.10937 52.88279,18.81809 16.51623,8.29339 35.86042,20.75304 35.86042,23.09781 0,2.26713 -10.97673,10.43121 -19.94388,14.8335 -10.285,5.04928 -11.90656,5.52956 -14.19971,4.2058 z"
         style="opacity:1;fill:#333333;fill-opacity:1;fill-rule:evenodd;stroke:none;stroke-width:6.06091547;stroke-linecap:square;stroke-linejoin:miter;stroke-miterlimit:4;stroke-dasharray:none;stroke-dashoffset:0;stroke-opacity:1;paint-order:markers stroke fill" />
      <path
         transform="matrix(0.5,0,0,0.5,0,-20.500017)"
         inkscape:connector-curvature="0"
         id="path2366"
         d="m 902.48425,650.66117 c -0.81789,-3.13102 -2.02058,-7.59627 -2.67265,-9.92278 -0.78632,-2.80553 -1.08332,-4.23001 -0.88194,-4.23001 0.43779,0 8.84473,2.31585 13.8766,3.82257 9.09144,2.72231 25.07531,8.44716 24.96383,8.94115 -0.0631,0.27981 -1.18351,0.61071 -7.24854,2.14084 -7.72787,1.94965 -17.8361,3.84892 -25.78903,4.8456 l -0.76119,0.0954 z"
         style="opacity:1;fill:#333333;fill-opacity:1;fill-rule:evenodd;stroke:none;stroke-width:1.51522887;stroke-linecap:square;stroke-linejoin:miter;stroke-miterlimit:4;stroke-dasharray:none;stroke-dashoffset:0;stroke-opacity:1;paint-order:markers stroke fill" />
      <path
         transform="matrix(0.5,0,0,0.5,0,-20.500017)"
         inkscape:connector-curvature="0"
         id="path2368"
         d="m 863.19356,658.20786 c -3.81964,-0.1031 -8.47327,-0.31152 -10.34141,-0.46314 -1.86814,-0.15162 -3.58276,-0.27567 -3.81027,-0.27567 -0.46332,0 -0.40903,-0.52037 0.9091,-8.71257 1.08207,-6.72509 3.77437,-19.53159 4.19442,-19.95163 0.32588,-0.32589 15.63946,1.74431 24.35931,3.29306 4.74272,0.84237 12.96763,2.53479 13.09234,2.69398 0.0323,0.0412 0.81166,2.74558 1.7319,6.00964 2.52525,8.95701 4.27275,15.94994 4.03946,16.16459 -0.30531,0.28089 -10.2902,0.99255 -15.9921,1.1398 -2.70848,0.07 -6.34502,0.16368 -8.08122,0.20829 -1.7362,0.0446 -6.28189,-0.003 -10.10153,-0.10635 z"
         style="opacity:1;fill:#333333;fill-opacity:1;fill-rule:evenodd;stroke:none;stroke-width:1.51522887;stroke-linecap:square;stroke-linejoin:miter;stroke-miterlimit:4;stroke-dasharray:none;stroke-dashoffset:0;stroke-opacity:1;paint-order:markers stroke fill" />
      <path
         transform="matrix(0.5,0,0,0.5,0,-20.500017)"
         inkscape:connector-curvature="0"
         id="path2370"
         d="m 836.17198,656.08089 c -12.86933,-1.79795 -24.11052,-4.24075 -34.22625,-7.43764 -6.64963,-2.10148 -8.58579,-2.8597 -8.54845,-3.34766 0.0504,-0.65819 8.93585,-11.5663 12.93281,-15.87675 l 1.17881,-1.27126 3.40927,-0.23822 c 9.16781,-0.64057 30.97265,-0.50337 35.70476,0.22467 l 1.08457,0.16686 -0.58972,2.52538 c -1.57764,6.75608 -3.44729,16.85839 -4.38165,23.67545 l -0.30287,2.20971 -1.0472,-0.0242 c -0.57596,-0.0133 -2.9223,-0.28617 -5.21408,-0.60635 z"
         style="opacity:1;fill:#333333;fill-opacity:1;fill-rule:evenodd;stroke:none;stroke-width:1.51522887;stroke-linecap:square;stroke-linejoin:miter;stroke-miterlimit:4;stroke-dasharray:none;stroke-dashoffset:0;stroke-opacity:1;paint-order:markers stroke fill" />
      <path
         transform="matrix(0.5,0,0,0.5,0,-20.500017)"
         inkscape:connector-curvature="0"
         id="path2372"
         d="m 844.2532,621.68213 c -3.02096,-0.23128 -9.15642,-0.37167 -17.362,-0.39728 -6.97952,-0.0218 -12.69004,-0.11872 -12.69004,-0.21543 0,-0.22423 7.69592,-7.5615 10.87721,-10.3703 9.24821,-8.1654 19.41653,-15.63773 29.15009,-21.42135 3.81546,-2.26712 12.2481,-6.70063 12.2481,-6.43951 0,0.0879 -0.43671,0.80696 -0.97047,1.59799 -5.23405,7.75688 -11.04347,20.7647 -14.79698,33.13177 -0.65342,2.15289 -1.23332,4.05639 -1.28866,4.23001 -0.0553,0.17362 -0.18943,0.29905 -0.29797,0.27873 -0.10853,-0.0203 -2.2997,-0.1979 -4.86928,-0.39463 z"
         style="opacity:1;fill:#333333;fill-opacity:1;fill-rule:evenodd;stroke:none;stroke-width:1.51522887;stroke-linecap:square;stroke-linejoin:miter;stroke-miterlimit:4;stroke-dasharray:none;stroke-dashoffset:0;stroke-opacity:1;paint-order:markers stroke fill" />
      <path
         transform="matrix(0.5,0,0,0.5,0,-20.500017)"
         inkscape:connector-curvature="0"
         id="path2374"
         d="m 887.68976,627.49452 c -8.73978,-1.83728 -19.84965,-3.57501 -30.36771,-4.74988 -1.00059,-0.11177 -1.4521,-0.27235 -1.4521,-0.51646 0,-0.53971 2.90844,-9.33567 4.28194,-12.94979 2.36285,-6.21746 5.16507,-12.22747 7.95173,-17.05432 1.84609,-3.19766 3.99843,-6.47586 4.25181,-6.47586 0.30621,0 4.66215,8.96438 6.83526,14.06673 2.85012,6.69193 5.22642,12.9806 7.8927,20.88738 1.3073,3.87675 2.34787,7.06858 2.31239,7.09296 -0.0355,0.0244 -0.8032,-0.11096 -1.70602,-0.30076 z"
         style="opacity:1;fill:#333333;fill-opacity:1;fill-rule:evenodd;stroke:none;stroke-width:1.51522887;stroke-linecap:square;stroke-linejoin:miter;stroke-miterlimit:4;stroke-dasharray:none;stroke-dashoffset:0;stroke-opacity:1;paint-order:markers stroke fill" />
      <path
         transform="matrix(0.5,0,0,0.5,0,-20.500017)"
         inkscape:connector-curvature="0"
         id="path2376"
         d="m 1034.0827,673.73859 c -9.4516,-14.224 -19.2163,-25.80117 -32.6607,-38.72328 -2.31447,-2.22452 -5.049,-4.75277 -6.07678,-5.61834 -1.02778,-0.86557 -1.86869,-1.68737 -1.86869,-1.82622 0,-0.41532 4.00526,-2.08312 6.06187,-2.52419 2.4758,-0.53096 6.7659,-0.26076 9.4422,0.59469 2.5262,0.80748 3.2081,1.58259 8.6168,9.79377 8.1426,12.3619 14.6585,25.58625 19.4204,39.4147 1.6347,4.74726 1.5763,4.51387 1.1307,4.51387 -0.1804,0 -2.01,-2.53125 -4.0658,-5.625 z"
         style="opacity:1;fill:#333333;fill-opacity:1;fill-rule:evenodd;stroke:none;stroke-width:2.14285707;stroke-linecap:square;stroke-linejoin:miter;stroke-miterlimit:4;stroke-dasharray:none;stroke-dashoffset:0;stroke-opacity:1;paint-order:markers stroke fill" />
      <path
         transform="matrix(0.5,0,0,0.5,0,-20.500017)"
         inkscape:connector-curvature="0"
         id="path2378"
         d="m 990.07598,621.23859 c 1.48194,-3.74534 2.0912,-10.98303 1.23657,-14.68999 -0.19844,-0.86074 -0.25898,-1.66432 -0.13454,-1.78571 0.12445,-0.1214 3.21882,2.83285 6.87638,6.56499 l 6.65011,6.78571 -3.0247,0.26783 c -3.35235,0.29685 -7.1181,1.31551 -9.70024,2.62398 -2.0214,1.02432 -2.22655,1.04945 -1.90358,0.23319 z"
         style="opacity:1;fill:#333333;fill-opacity:1;fill-rule:evenodd;stroke:none;stroke-width:2.14285707;stroke-linecap:square;stroke-linejoin:miter;stroke-miterlimit:4;stroke-dasharray:none;stroke-dashoffset:0;stroke-opacity:1;paint-order:markers stroke fill" />
      <path
         transform="matrix(0.5,0,0,0.5,0,-20.500017)"
         inkscape:connector-curvature="0"
         id="path2380"
         d="m 979.70972,616.83492 c -21.53343,-15.80984 -46.70052,-28.23033 -71.9216,-35.49484 -5.78177,-1.66534 -16.7472,-4.29359 -20.85238,-4.998 -1.75054,-0.30038 -1.54625,-0.93299 0.49651,-1.53751 3.09731,-0.9166 10.9343,-2.55867 15.15142,-3.17466 6.09313,-0.89002 19.51734,-0.89216 25.17858,-0.004 10.59893,1.66278 18.0608,4.21857 30.38707,10.40798 9.15612,4.59758 14.0578,7.88039 18.94281,12.68661 5.84399,5.74974 9.03772,12.84838 8.3527,18.56545 -0.24661,2.05823 -1.06457,5.22686 -1.54407,5.98148 -0.1977,0.31113 -1.42197,-0.39944 -4.19104,-2.43249 z"
         style="opacity:1;fill:#333333;fill-opacity:1;fill-rule:evenodd;stroke:none;stroke-width:2.14285707;stroke-linecap:square;stroke-linejoin:miter;stroke-miterlimit:4;stroke-dasharray:none;stroke-dashoffset:0;stroke-opacity:1;paint-order:markers stroke fill" />
      <path
         transform="matrix(0.5,0,0,0.5,0,-20.500017)"
         inkscape:connector-curvature="0"
         id="path2382"
         d="m 1054.9276,713.9373 c -0.1858,-0.45304 -1.0751,-2.59156 -1.9763,-4.75228 -1.2199,-2.92509 -1.9521,-5.49585 -2.8665,-10.06438 -3.5869,-17.92184 -8.9533,-33.76203 -16.6294,-49.0849 -2.3729,-4.73671 -2.7137,-5.72302 -1.7778,-5.14462 0.5101,0.31527 4.5793,6.41082 7.7539,11.61533 8.1157,13.30468 16.9044,32.91883 18.3125,40.86916 0.7802,4.40487 0.4013,9.47973 -1.0874,14.56289 -0.788,2.69076 -1.234,3.20632 -1.729,1.9988 z"
         style="opacity:1;fill:#333333;fill-opacity:1;fill-rule:evenodd;stroke:none;stroke-width:2.14285707;stroke-linecap:square;stroke-linejoin:miter;stroke-miterlimit:4;stroke-dasharray:none;stroke-dashoffset:0;stroke-opacity:1;paint-order:markers stroke fill" />
      <path
         transform="matrix(0.5,0,0,0.5,0,-20.500017)"
         inkscape:connector-curvature="0"
         id="path2384"
         d="m 1066.682,762.37606 c -0.1916,-0.50386 -0.3483,-1.29862 -0.3483,-1.76613 0,-3.39742 -3.1056,-19.89323 -5.136,-27.28015 l -1.2167,-4.42666 1.5737,-1.932 c 0.8655,-1.0626 1.8312,-2.32506 2.1459,-2.80548 0.3148,-0.48041 0.6946,-0.87348 0.8439,-0.87348 0.3334,0 1.6094,8.06427 2.3453,14.82143 0.5852,5.37366 1.1908,20.22715 0.9502,23.30357 -0.1592,2.03487 -0.6077,2.40628 -1.158,0.9589 z"
         style="opacity:1;fill:#333333;fill-opacity:1;fill-rule:evenodd;stroke:none;stroke-width:2.14285707;stroke-linecap:square;stroke-linejoin:miter;stroke-miterlimit:4;stroke-dasharray:none;stroke-dashoffset:0;stroke-opacity:1;paint-order:markers stroke fill" />
      <path
         transform="matrix(0.5,0,0,0.5,0,-20.500017)"
         inkscape:connector-curvature="0"
         id="path2386"
         d="m 1025.3515,851.12863 c -0.6384,-0.19629 -1.1607,-0.44359 -1.1607,-0.54957 0,-0.10597 1.2871,-2.58399 2.8601,-5.50671 14.5469,-27.02764 24.0867,-59.68774 26.0866,-89.30877 0.6166,-9.13318 0.7594,-9.56708 2.1355,-6.48927 3.3693,7.53572 4.9007,12.82312 5.3817,18.58169 0.5378,6.43926 0.2075,25.12926 -0.5506,31.15045 -1.2789,10.15886 -3.6344,20.9959 -6.575,30.25007 -1.1506,3.6208 -1.7379,4.84785 -3.4748,7.26026 -3.5912,4.98781 -11.8859,12.96393 -14.7617,14.19482 -1.5406,0.65939 -8.2389,0.94039 -9.9411,0.41703 z"
         style="opacity:1;fill:#333333;fill-opacity:1;fill-rule:evenodd;stroke:none;stroke-width:2.14285707;stroke-linecap:square;stroke-linejoin:miter;stroke-miterlimit:4;stroke-dasharray:none;stroke-dashoffset:0;stroke-opacity:1;paint-order:markers stroke fill" />
      <path
         transform="matrix(0.5,0,0,0.5,0,-20.500017)"
         inkscape:connector-curvature="0"
         id="path2388"
         d="m 1016.1487,846.98246 c -14.3457,-9.60855 -28.36399,-33.35612 -37.32927,-63.23722 -1.78721,-5.95675 -2.04278,-7.23879 -1.44302,-7.23879 0.57505,0 13.1443,-5.32001 21.16051,-8.95632 17.71648,-8.03654 33.31358,-16.56809 44.06498,-24.10344 2.1507,-1.50737 4.1374,-2.8289 4.415,-2.93672 0.4291,-0.16671 0.4698,0.86858 0.2721,6.91807 -1.0293,31.49073 -10.093,64.84964 -25.5368,93.98856 -1.8998,3.58451 -3.6178,6.51754 -3.8178,6.51786 -0.1999,3.1e-4 -1.0035,-0.42809 -1.7857,-0.952 z"
         style="opacity:1;fill:#333333;fill-opacity:1;fill-rule:evenodd;stroke:none;stroke-width:2.14285707;stroke-linecap:square;stroke-linejoin:miter;stroke-miterlimit:4;stroke-dasharray:none;stroke-dashoffset:0;stroke-opacity:1;paint-order:markers stroke fill" />
      <path
         transform="matrix(0.5,0,0,0.5,0,-20.500017)"
         inkscape:connector-curvature="0"
         id="path2390"
         d="m 924.09967,886.96845 c 1.36781,-6.93866 2.08601,-51.28806 1.32168,-81.61466 l -0.25253,-10.0201 14.64721,-4.92772 c 8.05597,-2.71024 18.28376,-6.29483 22.72843,-7.96576 6.95911,-2.6162 8.12763,-2.92512 8.41543,-2.22478 0.18382,0.4473 1.51287,4.56346 2.95344,9.14703 9.0601,28.82701 22.97405,51.89399 37.46637,62.11294 l 3.3784,2.38219 -4.7115,7.05693 c -4.6491,6.96337 -4.7508,7.07227 -7.6716,8.21469 -21.7318,8.50013 -43.48895,14.17726 -68.73014,17.93389 -4.78311,0.71187 -8.94911,1.29431 -9.25778,1.29431 -0.34189,0 -0.45422,-0.5428 -0.28741,-1.38896 z"
         style="opacity:1;fill:#333333;fill-opacity:1;fill-rule:evenodd;stroke:none;stroke-width:3.03045774;stroke-linecap:square;stroke-linejoin:miter;stroke-miterlimit:4;stroke-dasharray:none;stroke-dashoffset:0;stroke-opacity:1;paint-order:markers stroke fill" />
      <path
         transform="matrix(0.5,0,0,0.5,0,-20.500017)"
         inkscape:connector-curvature="0"
         id="path2392"
         d="m 889.91606,886.96692 c -5.69202,-9.86828 -12.59676,-24.64784 -17.63749,-37.75293 -4.55105,-11.83202 -12.04561,-35.74268 -11.40422,-36.38407 0.14261,-0.14261 7.50775,-2.06069 16.36698,-4.2624 12.88487,-3.20216 26.09489,-6.80919 40.15672,-10.96489 1.07472,-0.31762 1.35187,3.37242 1.95609,26.04383 0.5768,21.64249 -0.2755,52.01633 -1.78184,63.50046 l -0.27185,2.07252 -6.41988,0.58152 c -3.53093,0.31983 -9.16528,0.72692 -12.52077,0.90465 l -6.10088,0.32313 z"
         style="opacity:1;fill:#333333;fill-opacity:1;fill-rule:evenodd;stroke:none;stroke-width:3.03045774;stroke-linecap:square;stroke-linejoin:miter;stroke-miterlimit:4;stroke-dasharray:none;stroke-dashoffset:0;stroke-opacity:1;paint-order:markers stroke fill" />
      <path
         transform="matrix(0.5,0,0,0.5,0,-20.500017)"
         inkscape:connector-curvature="0"
         id="path2394"
         d="m 857.81104,801.78632 c -0.60613,-2.52735 -1.64105,-7.15213 -2.29981,-10.27729 l -1.19775,-5.68211 17.49746,-0.008 c 16.8979,-0.008 25.71995,-0.35908 38.87145,-1.54893 3.42193,-0.30959 6.32534,-0.45925 6.45201,-0.33258 0.37015,0.37015 0.88803,6.94008 0.54705,6.94008 -0.1704,0 -6.16948,1.6814 -13.33128,3.73645 -10.87141,3.1195 -28.20499,7.63253 -42.36125,11.02932 l -3.07583,0.73804 z"
         style="opacity:1;fill:#333333;fill-opacity:1;fill-rule:evenodd;stroke:none;stroke-width:3.03045774;stroke-linecap:square;stroke-linejoin:miter;stroke-miterlimit:4;stroke-dasharray:none;stroke-dashoffset:0;stroke-opacity:1;paint-order:markers stroke fill" />
      <path
         transform="matrix(0.5,0,0,0.5,0,-20.500017)"
         inkscape:connector-curvature="0"
         id="path2396"
         d="m 924.2127,787.55338 c -0.16861,-0.43941 -0.30657,-1.65719 -0.30657,-2.70619 v -1.90727 l 4.67195,-0.62116 c 2.56958,-0.34164 8.64513,-1.28306 13.50123,-2.09204 9.68653,-1.61368 10.55263,-1.70238 9.8333,-1.00707 -0.50751,0.49056 -25.91211,9.13265 -26.84666,9.13265 -0.30067,0 -0.68463,-0.35951 -0.85325,-0.79892 z"
         style="opacity:1;fill:#333333;fill-opacity:1;fill-rule:evenodd;stroke:none;stroke-width:3.03045774;stroke-linecap:square;stroke-linejoin:miter;stroke-miterlimit:4;stroke-dasharray:none;stroke-dashoffset:0;stroke-opacity:1;paint-order:markers stroke fill" />
      <path
         transform="matrix(0.5,0,0,0.5,0,-20.500017)"
         inkscape:connector-curvature="0"
         id="path2398"
         d="m 748.01214,821.88523 c -0.70596,-1.15385 -5.28438,-23.41752 -7.15555,-34.79562 -2.98916,-18.17637 -3.19973,-22.84289 -1.02134,-22.6347 0.5394,0.0515 5.64006,1.69068 11.33479,3.64251 25.66187,8.79544 59.10489,15.06072 90.76484,17.00406 l 5.65948,0.34739 0.57699,2.84068 c 0.31735,1.56237 1.2519,5.79537 2.07679,9.40666 0.82489,3.6113 1.62203,7.37279 1.77141,8.35888 l 0.27162,1.79289 -13.05865,2.61497 c -20.68391,4.14192 -35.53243,6.57952 -52.8115,8.66979 -17.81948,2.15563 -37.89388,3.59423 -38.40888,2.75249 z"
         style="opacity:1;fill:#333333;fill-opacity:1;fill-rule:evenodd;stroke:none;stroke-width:3.03045774;stroke-linecap:square;stroke-linejoin:miter;stroke-miterlimit:4;stroke-dasharray:none;stroke-dashoffset:0;stroke-opacity:1;paint-order:markers stroke fill" />
      <path
         transform="matrix(0.5,0,0,0.5,0,-20.500017)"
         inkscape:connector-curvature="0"
         id="path2400"
         d="m 844.86169,890.83727 c -17.01069,-1.04663 -37.55633,-3.60682 -52.34409,-6.52259 -10.41685,-2.05394 -24.41142,-5.4894 -25.34957,-6.22295 -1.70045,-1.32958 -10.8819,-26.46206 -15.44143,-42.26795 l -1.9653,-6.81284 4.61871,-0.37673 c 2.54029,-0.2072 8.92387,-0.72482 14.18572,-1.15025 20.07475,-1.62311 48.0516,-5.77222 73.03908,-10.83209 6.77143,-1.37118 12.38053,-2.42422 12.46466,-2.34009 0.0841,0.0841 0.95036,2.9713 1.92492,6.41592 5.73593,20.27365 13.49574,40.49153 22.17678,57.78072 3.34756,6.667 6.16223,12.29229 6.25483,12.50064 0.21798,0.49045 -31.00427,0.35489 -39.56431,-0.17179 z"
         style="opacity:1;fill:#333333;fill-opacity:1;fill-rule:evenodd;stroke:none;stroke-width:3.03045774;stroke-linecap:square;stroke-linejoin:miter;stroke-miterlimit:4;stroke-dasharray:none;stroke-dashoffset:0;stroke-opacity:1;paint-order:markers stroke fill" />
      <path
         transform="matrix(0.5,0,0,0.5,0,-20.500017)"
         inkscape:connector-curvature="0"
         id="path2402"
         d="m 928.63701,930.34594 c -2.99375,-1.65087 -5.15702,-3.10595 -8.04085,-5.40853 l -2.04728,-1.63464 1.35203,-6.73981 c 0.74362,-3.7069 1.73133,-9.46723 2.19491,-12.80073 1.32081,-9.49775 0.97177,-8.70263 3.98753,-9.08338 23.17136,-2.92539 47.59645,-8.41239 66.30791,-14.89579 2.33522,-0.80914 4.24585,-1.29117 4.24585,-1.07117 0,0.85509 -7.07774,8.731 -14.34935,15.96754 -14.2124,14.14387 -28.07491,24.61437 -45.23803,34.16876 -2.91042,1.62018 -5.41055,2.94166 -5.55584,2.93662 -0.14529,-0.005 -1.43088,-0.65252 -2.85688,-1.43887 z"
         style="opacity:1;fill:#333333;fill-opacity:1;fill-rule:evenodd;stroke:none;stroke-width:3.03045774;stroke-linecap:square;stroke-linejoin:miter;stroke-miterlimit:4;stroke-dasharray:none;stroke-dashoffset:0;stroke-opacity:1;paint-order:markers stroke fill" />
      <path
         transform="matrix(0.5,0,0,0.5,0,-20.500017)"
         inkscape:connector-curvature="0"
         id="path2404"
         d="m 910.20349,915.25272 c -4.82128,-5.20065 -13.90741,-17.1313 -13.41888,-17.61982 0.19462,-0.19463 16.99638,-1.6875 19.08855,-1.69605 0.72913,-0.003 0.74121,0.46563 0.12687,4.92119 -1.00917,7.31904 -2.82869,16.79379 -3.22506,16.79379 -0.19105,0 -1.34822,-1.0796 -2.57148,-2.39911 z"
         style="opacity:1;fill:#333333;fill-opacity:1;fill-rule:evenodd;stroke:none;stroke-width:3.03045774;stroke-linecap:square;stroke-linejoin:miter;stroke-miterlimit:4;stroke-dasharray:none;stroke-dashoffset:0;stroke-opacity:1;paint-order:markers stroke fill" />
      <path
         transform="matrix(0.5,0,0,0.5,0,-20.500017)"
         inkscape:connector-curvature="0"
         id="path2406"
         d="m 846.37692,950.46057 c -6.7585,-0.68593 -18.846,-2.46019 -24.11552,-3.5398 -4.06818,-0.83349 -5.16933,-1.30998 -8.94733,-3.87175 -13.50813,-9.15952 -28.14084,-27.81798 -39.65095,-50.5597 -1.59145,-3.14439 -2.77163,-5.83898 -2.62262,-5.98799 0.14901,-0.14901 3.18267,0.42625 6.74148,1.27835 27.64901,6.6201 54.0955,9.58705 89.39611,10.02905 l 21.81132,0.27311 2.88398,4.35542 c 4.43767,6.70181 9.04682,12.44775 14.48788,18.06115 l 4.96225,5.11942 -2.06745,6.18464 c -1.1371,3.40156 -2.62457,7.28405 -3.30548,8.62777 -1.21119,2.39018 -1.32834,2.47026 -5.40457,3.69448 -8.55139,2.56825 -14.95316,3.97058 -24.62214,5.39355 -7.86611,1.15764 -22.74856,1.63227 -29.54696,0.9423 z"
         style="opacity:1;fill:#333333;fill-opacity:1;fill-rule:evenodd;stroke:none;stroke-width:3.03045774;stroke-linecap:square;stroke-linejoin:miter;stroke-miterlimit:4;stroke-dasharray:none;stroke-dashoffset:0;stroke-opacity:1;paint-order:markers stroke fill" />
      <path
         transform="matrix(0.5,0,0,0.5,0,-20.500017)"
         inkscape:connector-curvature="0"
         id="path2408"
         d="m 913.8046,939.14187 c 0,-0.12553 0.64231,-2.13966 1.42736,-4.47585 l 1.42736,-4.24761 3.58937,2.32927 c 1.97415,1.28111 3.60455,2.44292 3.62311,2.58182 0.0355,0.26571 -9.0354,4.05308 -9.68839,4.04519 -0.20835,-0.003 -0.37881,-0.10729 -0.37881,-0.23282 z"
         style="opacity:1;fill:#333333;fill-opacity:1;fill-rule:evenodd;stroke:none;stroke-width:3.03045774;stroke-linecap:square;stroke-linejoin:miter;stroke-miterlimit:4;stroke-dasharray:none;stroke-dashoffset:0;stroke-opacity:1;paint-order:markers stroke fill" />
      <path
         transform="matrix(0.5,0,0,0.5,0,-20.500017)"
         inkscape:connector-curvature="0"
         id="path2410"
         d="m 913.42238,947.3353 c 0.11387,-0.34161 1.89426,-1.26393 3.95643,-2.04961 2.06217,-0.78568 6.08267,-2.4689 8.93445,-3.74048 l 5.18504,-2.31196 3.28559,1.07858 c 1.80707,0.59322 3.66719,1.07858 4.13361,1.07858 3.54177,0 -8.42303,3.50658 -18.95135,5.55416 -6.07499,1.18148 -6.82223,1.2261 -6.54377,0.39073 z"
         style="opacity:1;fill:#333333;fill-opacity:1;fill-rule:evenodd;stroke:none;stroke-width:3.03045774;stroke-linecap:square;stroke-linejoin:miter;stroke-miterlimit:4;stroke-dasharray:none;stroke-dashoffset:0;stroke-opacity:1;paint-order:markers stroke fill" />
      <path
         transform="matrix(0.5,0,0,0.5,0,-20.500017)"
         inkscape:connector-curvature="0"
         id="path2412"
         d="m 945.37187,936.02324 c -3.74432,-0.5013 -4.85225,-0.78166 -4.70439,-1.1904 0.0873,-0.2413 3.22688,-2.29284 6.97687,-4.55899 21.31929,-12.88341 41.96368,-31.35962 57.78835,-51.71907 l 4.0839,-5.25419 8.5863,-4.29571 c 4.7224,-2.36264 11.8645,-6.47524 15.8713,-9.13911 6.9789,-4.63993 8.1198,-5.27134 8.1198,-4.49397 0,0.54181 -3.8856,6.99157 -7.2442,12.02494 -11.124,16.67058 -25.4172,32.2392 -41.08146,44.74724 -11.94612,9.53905 -29.6686,20.49169 -36.52718,22.57409 -3.37553,1.02488 -9.18848,1.66408 -11.86929,1.30517 z"
         style="opacity:1;fill:#333333;fill-opacity:1;fill-rule:evenodd;stroke:none;stroke-width:3.03045774;stroke-linecap:square;stroke-linejoin:miter;stroke-miterlimit:4;stroke-dasharray:none;stroke-dashoffset:0;stroke-opacity:1;paint-order:markers stroke fill" />
      <path
         transform="matrix(0.5,0,0,0.5,0,-20.500017)"
         inkscape:connector-curvature="0"
         id="path2414"
         d="m 1017.8503,861.35641 c 0,-0.12757 0.625,-1.26895 1.389,-2.5364 1.2716,-2.10971 1.517,-2.27727 2.9042,-1.98292 3.0991,0.65761 3.0562,1.01067 -0.3546,2.91806 -3.1779,1.77723 -3.9386,2.08647 -3.9386,1.60126 z"
         style="opacity:1;fill:#333333;fill-opacity:1;fill-rule:evenodd;stroke:none;stroke-width:3.03045774;stroke-linecap:square;stroke-linejoin:miter;stroke-miterlimit:4;stroke-dasharray:none;stroke-dashoffset:0;stroke-opacity:1;paint-order:markers stroke fill" />
      <path
         transform="matrix(0.5,0,0,0.5,0,-20.500017)"
         inkscape:connector-curvature="0"
         id="path2416"
         d="m 795.74526,939.82115 c -5.60565,-2.06057 -9.28657,-3.89526 -13.80774,-6.88221 -15.56425,-10.28268 -27.83079,-25.67962 -36.18111,-45.41449 -1.74094,-4.11447 -4.20395,-10.71428 -3.9985,-10.71428 0.0602,0 1.78549,0.62922 3.83408,1.39826 2.04858,0.76904 6.65926,2.33478 10.24595,3.47941 5.19274,1.65716 6.56519,2.22721 6.73686,2.79816 0.43529,1.44768 8.32912,16.93209 11.01654,21.60988 6.68934,11.64359 15.01638,22.94658 22.82492,30.98214 2.33826,2.40625 4.10814,4.36229 3.93305,4.34675 -0.17509,-0.0155 -2.24691,-0.73717 -4.60405,-1.60362 z"
         style="opacity:1;fill:#333333;fill-opacity:1;fill-rule:evenodd;stroke:none;stroke-width:2.14285707;stroke-linecap:square;stroke-linejoin:miter;stroke-miterlimit:4;stroke-dasharray:none;stroke-dashoffset:0;stroke-opacity:1;paint-order:markers stroke fill" />
      <path
         transform="matrix(0.5,0,0,0.5,0,-20.500017)"
         inkscape:connector-curvature="0"
         id="path2418"
         d="m 752.17383,873.80658 c -2.94643,-1.04258 -7.07336,-2.56885 -9.17095,-3.3917 l -3.8138,-1.49609 -1.07842,-4.53645 c -2.43928,-10.26094 -3.66321,-18.51629 -4.8703,-32.84997 l -0.21889,-2.59923 5.0533,0.0992 5.0533,0.0992 2.24906,7.85714 c 3.54751,12.39332 9.412,29.48695 12.83488,37.41071 0.54444,1.26034 0.54142,1.33821 -0.0512,1.32101 -0.34638,-0.0101 -3.0405,-0.8713 -5.98693,-1.91388 z"
         style="opacity:1;fill:#333333;fill-opacity:1;fill-rule:evenodd;stroke:none;stroke-width:2.14285707;stroke-linecap:square;stroke-linejoin:miter;stroke-miterlimit:4;stroke-dasharray:none;stroke-dashoffset:0;stroke-opacity:1;paint-order:markers stroke fill" />
      <path
         transform="matrix(0.5,0,0,0.5,0,-20.500017)"
         inkscape:connector-curvature="0"
         id="path2420"
         d="m 726.24842,862.92039 c -11.29776,-5.71587 -20.81109,-12.31133 -27.85608,-19.31222 -5.34289,-5.30946 -5.67913,-5.87321 -8.34017,-13.98332 -1.29928,-3.95986 -2.30459,-7.25748 -2.23402,-7.32805 0.0706,-0.0706 1.07946,0.25769 2.24199,0.72946 6.4981,2.63704 18.56848,4.78176 31.07977,5.52241 2.77063,0.16401 5.19651,0.39647 5.39083,0.51657 0.19433,0.1201 0.45941,2.19142 0.58908,4.60293 0.43284,8.04994 2.06865,19.97045 3.82454,27.87036 0.77104,3.46893 0.81266,3.84427 0.4259,3.84034 -0.14733,-10e-4 -2.45215,-1.10781 -5.12184,-2.45848 z"
         style="opacity:1;fill:#333333;fill-opacity:1;fill-rule:evenodd;stroke:none;stroke-width:2.14285707;stroke-linecap:square;stroke-linejoin:miter;stroke-miterlimit:4;stroke-dasharray:none;stroke-dashoffset:0;stroke-opacity:1;paint-order:markers stroke fill" />
      <path
         transform="matrix(0.5,0,0,0.5,0,-20.500017)"
         inkscape:connector-curvature="0"
         id="path2422"
         d="m 751.59369,914.69619 c -20.37545,-15.55149 -39.45942,-37.21147 -49.30985,-55.96584 -1.18496,-2.25605 -2.06216,-4.19422 -1.94935,-4.30704 0.11282,-0.11282 1.61746,0.83703 3.34366,2.11078 4.11839,3.03893 7.72444,5.4243 11.88853,7.86416 3.46869,2.03241 13.38284,7.07504 16.6248,8.45587 l 1.80337,0.76809 1.32696,4.18327 c 4.08059,12.86419 10.94325,26.62206 18.1646,36.4154 1.33978,1.81697 2.29577,3.30357 2.12441,3.30357 -0.17135,0 -1.97906,-1.27272 -4.01713,-2.82826 z"
         style="opacity:1;fill:#333333;fill-opacity:1;fill-rule:evenodd;stroke:none;stroke-width:2.14285707;stroke-linecap:square;stroke-linejoin:miter;stroke-miterlimit:4;stroke-dasharray:none;stroke-dashoffset:0;stroke-opacity:1;paint-order:markers stroke fill" />
      <path
         transform="matrix(0.5,0,0,0.5,0,-20.500017)"
         inkscape:connector-curvature="0"
         id="path2424"
         d="m 721.63811,822.28668 c -15.82605,-1.11253 -27.83132,-3.75441 -34.49139,-7.59016 l -1.81283,-1.04407 -1.34755,-5.94901 c -2.59157,-11.44103 -4.44942,-23.23489 -5.7948,-36.78613 -0.80178,-8.07592 -0.9271,-33.73855 -0.20056,-41.07143 0.67595,-6.82218 1.54552,-13.17338 1.8485,-13.50113 0.14585,-0.15776 1.15687,1.52974 2.24672,3.75 1.08985,2.22027 3.00184,5.48017 4.24887,7.24424 2.83444,4.00963 9.7346,11.1693 14.33307,14.87211 6.72172,5.4125 16.46401,11.4271 25.67191,15.84907 l 4.46209,2.14285 0.41443,3.69091 c 0.38452,3.4245 0.3504,4.03758 -0.47268,8.49405 -2.35346,12.74252 -3.7151,26.37418 -4.00025,40.04719 l -0.21041,10.08928 -1.64399,-0.0624 c -0.90419,-0.0343 -2.3672,-0.11324 -3.25113,-0.17538 z"
         style="opacity:1;fill:#333333;fill-opacity:1;fill-rule:evenodd;stroke:none;stroke-width:2.14285707;stroke-linecap:square;stroke-linejoin:miter;stroke-miterlimit:4;stroke-dasharray:none;stroke-dashoffset:0;stroke-opacity:1;paint-order:markers stroke fill" />
      <path
         transform="matrix(0.5,0,0,0.5,0,-20.500017)"
         inkscape:connector-curvature="0"
         id="path2426"
         d="m 733.02318,821.18517 c -0.21667,-6.66966 0.77417,-28.17755 1.34029,-29.09357 0.44219,-0.71547 0.76619,-0.0835 1.18319,2.30785 0.91901,5.27035 3.64242,18.45493 4.79514,23.21429 l 1.18937,4.91071 h -4.23224 -4.23225 z"
         style="opacity:1;fill:#333333;fill-opacity:1;fill-rule:evenodd;stroke:none;stroke-width:2.14285707;stroke-linecap:square;stroke-linejoin:miter;stroke-miterlimit:4;stroke-dasharray:none;stroke-dashoffset:0;stroke-opacity:1;paint-order:markers stroke fill" />
      <path
         transform="matrix(0.5,0,0,0.5,0,-20.500017)"
         inkscape:connector-curvature="0"
         id="path2428"
         d="m 724.96221,750.21089 c -21.94834,-11.44664 -35.89877,-25.35804 -39.81423,-39.7028 -0.60204,-2.20568 -0.77266,-3.87904 -0.79847,-7.83121 l -0.0328,-5.02614 2.35937,-4.80454 c 2.29889,-4.68139 7.05759,-12.17182 10.05576,-15.82825 7.09817,-8.65659 15.71769,-16.25589 25.91409,-22.84685 4.23689,-2.73873 12.86171,-7.53906 13.10621,-7.29455 0.0906,0.0907 -0.38514,2.80476 -1.0573,6.03136 -2.18102,10.46946 -3.82092,22.41658 -5.09475,37.11654 -0.84676,9.77168 -0.8684,45.40331 -0.034,55.89286 0.2969,3.73214 0.51817,6.81728 0.49171,6.85586 -0.0265,0.0386 -2.31948,-1.11445 -5.09562,-2.56228 z"
         style="opacity:1;fill:#333333;fill-opacity:1;fill-rule:evenodd;stroke:none;stroke-width:2.14285707;stroke-linecap:square;stroke-linejoin:miter;stroke-miterlimit:4;stroke-dasharray:none;stroke-dashoffset:0;stroke-opacity:1;paint-order:markers stroke fill" />
      <path
         transform="matrix(0.5,0,0,0.5,0,-20.500017)"
         inkscape:connector-curvature="0"
         id="path2430"
         d="m 735.7987,743.34033 c -0.51469,-6.22479 -0.97713,-25.74787 -0.77224,-32.60159 0.54743,-18.31118 1.43578,-29.07142 3.60563,-43.67324 1.2306,-8.28123 4.04913,-22.02506 4.82103,-23.50844 0.35913,-0.69016 7.47227,-3.53505 14.62599,-5.84965 l 5.19099,-1.67956 3.55901,2.65295 c 4.03842,3.01033 8.13238,5.51613 12.91785,7.90668 l 3.28742,1.6422 -3.69025,5.45096 c -13.29554,19.63921 -23.55651,39.10309 -32.24509,61.16524 -2.87851,7.30915 -7.17559,19.87656 -9.15402,26.77219 -0.67415,2.3497 -1.38114,4.32398 -1.57109,4.3873 -0.19042,0.0635 -0.44848,-1.13215 -0.57523,-2.66504 z"
         style="opacity:1;fill:#333333;fill-opacity:1;fill-rule:evenodd;stroke:none;stroke-width:2.14285707;stroke-linecap:square;stroke-linejoin:miter;stroke-miterlimit:4;stroke-dasharray:none;stroke-dashoffset:0;stroke-opacity:1;paint-order:markers stroke fill" />
      <path
         transform="matrix(0.5,0,0,0.5,0,-20.500017)"
         inkscape:connector-curvature="0"
         id="path2432"
         d="m 697.70954,665.54445 c 0,-0.78865 8.07359,-14.01354 11.546,-18.91285 8.08484,-11.40711 18.41525,-22.28351 29.75499,-31.32761 3.29761,-2.63004 10.5844,-7.79891 10.75456,-7.62875 0.0723,0.0723 -0.66353,1.71556 -1.63515,3.65172 -2.49465,4.97119 -6.12601,14.2896 -8.24753,21.164 -0.99455,3.22266 -1.86063,5.91172 -1.92461,5.97571 -0.064,0.064 -1.8737,0.97888 -4.02158,2.0331 -12.09079,5.93435 -24.08097,14.09425 -32.52331,22.13368 -3.02652,2.88207 -3.70337,3.41411 -3.70337,2.911 z"
         style="opacity:1;fill:#333333;fill-opacity:1;fill-rule:evenodd;stroke:none;stroke-width:2.14285707;stroke-linecap:square;stroke-linejoin:miter;stroke-miterlimit:4;stroke-dasharray:none;stroke-dashoffset:0;stroke-opacity:1;paint-order:markers stroke fill" />
      <path
         transform="matrix(0.5,0,0,0.5,0,-20.500017)"
         inkscape:connector-curvature="0"
         id="path2434"
         d="m 745.92383,634.67327 c 0,-1.20525 4.93654,-14.4399 5.47912,-14.68926 0.1653,-0.076 0.66573,0.75949 1.11208,1.85657 0.90527,2.22512 2.87668,5.45912 4.69219,7.69731 l 1.19865,1.47772 -1.66849,0.42013 c -0.91768,0.23107 -3.5966,1.13306 -5.95318,2.00442 -4.6059,1.70306 -4.86037,1.76763 -4.86037,1.23311 z"
         style="opacity:1;fill:#333333;fill-opacity:1;fill-rule:evenodd;stroke:none;stroke-width:2.14285707;stroke-linecap:square;stroke-linejoin:miter;stroke-miterlimit:4;stroke-dasharray:none;stroke-dashoffset:0;stroke-opacity:1;paint-order:markers stroke fill" />
      <path
         transform="matrix(0.5,0,0,0.5,0,-20.500017)"
         inkscape:connector-curvature="0"
         id="path2436"
         d="m 782.15112,640.63636 c -5.22613,-2.69171 -10.55771,-6.01352 -10.40193,-6.48085 0.14864,-0.44592 1.02577,-0.67264 8.28178,-2.14075 6.67329,-1.3502 16.26342,-2.82713 17.16237,-2.6431 0.41147,0.0842 -0.49544,1.41929 -3.23346,4.75994 -2.09293,2.55357 -4.47599,5.56228 -5.29569,6.68601 -0.8197,1.12374 -1.65108,2.04196 -1.84751,2.04048 -0.19642,-10e-4 -2.29593,-1.00125 -4.66556,-2.22173 z"
         style="opacity:1;fill:#333333;fill-opacity:1;fill-rule:evenodd;stroke:none;stroke-width:2.14285707;stroke-linecap:square;stroke-linejoin:miter;stroke-miterlimit:4;stroke-dasharray:none;stroke-dashoffset:0;stroke-opacity:1;paint-order:markers stroke fill" />
      <path
         transform="matrix(0.5,0,0,0.5,0,-20.500017)"
         inkscape:connector-curvature="0"
         id="path2438"
         d="m 763.06107,626.6315 c -4.42227,-5.3308 -6.22443,-9.68003 -6.2154,-14.9999 0.006,-3.56585 -0.0414,-3.439 3.11723,-8.3396 l 2.15247,-3.3396 6.10066,-2.96391 c 19.80042,-9.61972 40.94114,-15.34172 63.9578,-17.31097 6.22217,-0.53236 19.86488,-0.80944 23.39285,-0.4751 l 3.03572,0.28768 -4.64286,2.63339 c -15.66462,8.88485 -34.1079,23.4197 -46.02731,36.2734 l -3.40814,3.67528 -2.60371,0.2479 c -10.85711,1.03369 -28.03383,4.10238 -36.18073,6.46383 -0.56713,0.16439 -1.13554,-0.29236 -2.67858,-2.1524 z"
         style="opacity:1;fill:#333333;fill-opacity:1;fill-rule:evenodd;stroke:none;stroke-width:2.14285707;stroke-linecap:square;stroke-linejoin:miter;stroke-miterlimit:4;stroke-dasharray:none;stroke-dashoffset:0;stroke-opacity:1;paint-order:markers stroke fill" />
      <path
         transform="matrix(0.5,0,0,0.5,0,-20.500017)"
         inkscape:connector-curvature="0"
         id="path2440"
         d="m 777.54827,585.6381 c 0,-0.40472 1.0269,-0.98913 6.43972,-3.66485 17.02889,-8.4179 35.38091,-14.39131 53.91689,-17.54944 10.3374,-1.76127 13.39798,-1.89385 16.0189,-0.69396 2.84665,1.30324 6.20165,4.11635 9.17466,7.69278 1.3851,1.66625 1.62071,2.1936 0.88101,1.97194 -0.24307,-0.0728 -3.283,-0.26703 -6.7554,-0.43154 -22.26108,-1.05463 -45.26793,1.79858 -66.16499,8.20551 -3.6525,1.11984 -10.69113,3.58067 -13.06885,4.56911 -0.26742,0.11117 -0.44194,0.0719 -0.44194,-0.0996 z"
         style="opacity:1;fill:#333333;fill-opacity:1;fill-rule:evenodd;stroke:none;stroke-width:1.51522887;stroke-linecap:square;stroke-linejoin:miter;stroke-miterlimit:4;stroke-dasharray:none;stroke-dashoffset:0;stroke-opacity:1;paint-order:markers stroke fill" />
      <path
         transform="matrix(0.5,0,0,0.5,0,-20.500017)"
         inkscape:connector-curvature="0"
         id="path2442"
         d="m 870.45084,570.64951 c -2.32184,-3.12477 -5.6165,-6.88316 -6.87605,-7.84386 -0.50664,-0.38643 -0.92117,-0.81047 -0.92117,-0.94229 0,-0.52864 19.05822,-0.21075 24.84229,0.41436 l 1.48251,0.16022 -2.33573,1.23373 c -2.84755,1.50409 -6.50888,4.10538 -9.21559,6.54747 -1.80685,1.63021 -2.95766,2.35295 -4.54764,2.85605 -0.42017,0.13295 -0.83619,-0.28257 -2.42862,-2.42568 z"
         style="opacity:1;fill:#333333;fill-opacity:1;fill-rule:evenodd;stroke:none;stroke-width:1.51522887;stroke-linecap:square;stroke-linejoin:miter;stroke-miterlimit:4;stroke-dasharray:none;stroke-dashoffset:0;stroke-opacity:1;paint-order:markers stroke fill" />
    </g>
    <circle
       style="opacity:1;fill:#ffffff;fill-opacity:1;fill-rule:evenodd;stroke:none;stroke-width:8.93878078;stroke-linecap:square;stroke-linejoin:miter;stroke-miterlimit:4;stroke-dasharray:none;stroke-dashoffset:0;stroke-opacity:1;paint-order:markers stroke fill"
       id="path2492"
       cx="306.78683"
       cy="-385.93735"
       r="14.897968"
       transform="rotate(90)" />
    <circle
       r="14.897968"
       cy="-363.9021"
       cx="209.29445"
       id="circle2494"
       style="opacity:1;fill:#ffffff;fill-opacity:1;fill-rule:evenodd;stroke:none;stroke-width:8.93878078;stroke-linecap:square;stroke-linejoin:miter;stroke-miterlimit:4;stroke-dasharray:none;stroke-dashoffset:0;stroke-opacity:1;paint-order:markers stroke fill"
       transform="rotate(90)" />
    <circle
       style="opacity:1;fill:#ffffff;fill-opacity:1;fill-rule:evenodd;stroke:none;stroke-width:8.93878078;stroke-linecap:square;stroke-linejoin:miter;stroke-miterlimit:4;stroke-dasharray:none;stroke-dashoffset:0;stroke-opacity:1;paint-order:markers stroke fill"
       id="circle2496"
       cx="210.98747"
       cy="-339.44714"
       r="14.897968"
       transform="rotate(90)" />
    <circle
       r="14.897968"
       cy="-344.3381"
       cx="316.70822"
       id="circle2498"
       style="opacity:1;fill:#ffffff;fill-opacity:1;fill-rule:evenodd;stroke:none;stroke-width:8.93878078;stroke-linecap:square;stroke-linejoin:miter;stroke-miterlimit:4;stroke-dasharray:none;stroke-dashoffset:0;stroke-opacity:1;paint-order:markers stroke fill"
       transform="rotate(90)" />
    <circle
       style="opacity:1;fill:#ffffff;fill-opacity:1;fill-rule:evenodd;stroke:none;stroke-width:8.93878078;stroke-linecap:square;stroke-linejoin:miter;stroke-miterlimit:4;stroke-dasharray:none;stroke-dashoffset:0;stroke-opacity:1;paint-order:markers stroke fill"
       id="circle2500"
       cx="63.505085"
       cy="-447.04904"
       r="14.897968"
       transform="rotate(90)" />
    <circle
       r="14.897968"
       cy="-477.90912"
       cx="84.255806"
       id="circle2502"
       style="opacity:1;fill:#ffffff;fill-opacity:1;fill-rule:evenodd;stroke:none;stroke-width:8.93878078;stroke-linecap:square;stroke-linejoin:miter;stroke-miterlimit:4;stroke-dasharray:none;stroke-dashoffset:0;stroke-opacity:1;paint-order:markers stroke fill"
       transform="rotate(90)" />
    <circle
       style="opacity:1;fill:#ffffff;fill-opacity:1;fill-rule:evenodd;stroke:none;stroke-width:8.93878078;stroke-linecap:square;stroke-linejoin:miter;stroke-miterlimit:4;stroke-dasharray:none;stroke-dashoffset:0;stroke-opacity:1;paint-order:markers stroke fill"
       id="circle2504"
       cx="211.42058"
       cy="-509.3013"
       r="14.897968"
       transform="rotate(90)" />
    <circle
       r="14.897968"
       cy="-511.96164"
       cx="256.64651"
       id="circle2506"
       style="opacity:1;fill:#ffffff;fill-opacity:1;fill-rule:evenodd;stroke:none;stroke-width:8.93878078;stroke-linecap:square;stroke-linejoin:miter;stroke-miterlimit:4;stroke-dasharray:none;stroke-dashoffset:0;stroke-opacity:1;paint-order:markers stroke fill"
       transform="rotate(90)" />
    <circle
       style="opacity:1;fill:#ffffff;fill-opacity:1;fill-rule:evenodd;stroke:none;stroke-width:8.93878078;stroke-linecap:square;stroke-linejoin:miter;stroke-miterlimit:4;stroke-dasharray:none;stroke-dashoffset:0;stroke-opacity:1;paint-order:markers stroke fill"
       id="circle2508"
       cx="219.93362"
       cy="-554.52728"
       r="14.897968"
       transform="rotate(90)" />
    <circle
       r="14.897968"
       cy="-571.55353"
       cx="192.26599"
       id="circle2510"
       style="opacity:1;fill:#ffffff;fill-opacity:1;fill-rule:evenodd;stroke:none;stroke-width:8.93878078;stroke-linecap:square;stroke-linejoin:miter;stroke-miterlimit:4;stroke-dasharray:none;stroke-dashoffset:0;stroke-opacity:1;paint-order:markers stroke fill"
       transform="rotate(90)" />
    <circle
       style="opacity:1;fill:#ffffff;fill-opacity:1;fill-rule:evenodd;stroke:none;stroke-width:8.93878078;stroke-linecap:square;stroke-linejoin:miter;stroke-miterlimit:4;stroke-dasharray:none;stroke-dashoffset:0;stroke-opacity:1;paint-order:markers stroke fill"
       id="circle2512"
       cx="133.73827"
       cy="-329.46146"
       r="14.897968"
       transform="rotate(90)" />
    <circle
       r="14.897968"
       cy="-164.40645"
       cx="136.12477"
       id="circle2514"
       style="opacity:1;fill:#ffffff;fill-opacity:1;fill-rule:evenodd;stroke:none;stroke-width:8.93878078;stroke-linecap:square;stroke-linejoin:miter;stroke-miterlimit:4;stroke-dasharray:none;stroke-dashoffset:0;stroke-opacity:1;paint-order:markers stroke fill"
       transform="rotate(90)" />
    <circle
       style="opacity:1;fill:#ffffff;fill-opacity:1;fill-rule:evenodd;stroke:none;stroke-width:8.93878078;stroke-linecap:square;stroke-linejoin:miter;stroke-miterlimit:4;stroke-dasharray:none;stroke-dashoffset:0;stroke-opacity:1;paint-order:markers stroke fill"
       id="circle2516"
       cx="173.36974"
       cy="-144.71985"
       r="14.897968"
       transform="rotate(90)" />
    <circle
       r="14.897968"
       cy="-161.21399"
       cx="239.87857"
       id="circle2518"
       style="opacity:1;fill:#ffffff;fill-opacity:1;fill-rule:evenodd;stroke:none;stroke-width:8.93878078;stroke-linecap:square;stroke-linejoin:miter;stroke-miterlimit:4;stroke-dasharray:none;stroke-dashoffset:0;stroke-opacity:1;paint-order:markers stroke fill"
       transform="rotate(90)" />
    <circle
       style="opacity:1;fill:#ffffff;fill-opacity:1;fill-rule:evenodd;stroke:none;stroke-width:8.93878078;stroke-linecap:square;stroke-linejoin:miter;stroke-miterlimit:4;stroke-dasharray:none;stroke-dashoffset:0;stroke-opacity:1;paint-order:markers stroke fill"
       id="circle2520"
       cx="323.94571"
       cy="-163.87433"
       r="14.897968"
       transform="rotate(90)" />
    <circle
       r="14.897968"
       cy="-112.26347"
       cx="312.77222"
       id="circle2522"
       style="opacity:1;fill:#ffffff;fill-opacity:1;fill-rule:evenodd;stroke:none;stroke-width:8.93878078;stroke-linecap:square;stroke-linejoin:miter;stroke-miterlimit:4;stroke-dasharray:none;stroke-dashoffset:0;stroke-opacity:1;paint-order:markers stroke fill"
       transform="rotate(90)" />
    <circle
       style="opacity:1;fill:#ffffff;fill-opacity:1;fill-rule:evenodd;stroke:none;stroke-width:8.93878078;stroke-linecap:square;stroke-linejoin:miter;stroke-miterlimit:4;stroke-dasharray:none;stroke-dashoffset:0;stroke-opacity:1;paint-order:markers stroke fill"
       id="circle2524"
       cx="251.58417"
       cy="-118.64831"
       r="14.897968"
       transform="rotate(90)" />
    <circle
       r="14.897968"
       cy="-108.53899"
       cx="379.81308"
       id="circle2526"
       style="opacity:1;fill:#ffffff;fill-opacity:1;fill-rule:evenodd;stroke:none;stroke-width:8.93878078;stroke-linecap:square;stroke-linejoin:miter;stroke-miterlimit:4;stroke-dasharray:none;stroke-dashoffset:0;stroke-opacity:1;paint-order:markers stroke fill"
       transform="rotate(90)" />
    <circle
       style="opacity:1;fill:#ffffff;fill-opacity:1;fill-rule:evenodd;stroke:none;stroke-width:8.93878078;stroke-linecap:square;stroke-linejoin:miter;stroke-miterlimit:4;stroke-dasharray:none;stroke-dashoffset:0;stroke-opacity:1;paint-order:markers stroke fill"
       id="circle2528"
       cx="410.67316"
       cy="-145.78391"
       r="14.897968"
       transform="rotate(90)" />
    <circle
       r="14.897968"
       cy="-119.71246"
       cx="444.1936"
       id="circle2530"
       style="opacity:1;fill:#ffffff;fill-opacity:1;fill-rule:evenodd;stroke:none;stroke-width:8.93878078;stroke-linecap:square;stroke-linejoin:miter;stroke-miterlimit:4;stroke-dasharray:none;stroke-dashoffset:0;stroke-opacity:1;paint-order:markers stroke fill"
       transform="rotate(90)" />
    <circle
       style="opacity:1;fill:#ffffff;fill-opacity:1;fill-rule:evenodd;stroke:none;stroke-width:18.67566681;stroke-linecap:square;stroke-linejoin:miter;stroke-miterlimit:4;stroke-dasharray:none;stroke-dashoffset:0;stroke-opacity:1;paint-order:markers stroke fill"
       id="circle2532"
       cx="282.71033"
       cy="-35.911476"
       r="31.126112"
       transform="rotate(90)" />
    <circle
       r="14.897968"
       cy="-110.13526"
       cx="113.24588"
       id="circle2534"
       style="opacity:1;fill:#ffffff;fill-opacity:1;fill-rule:evenodd;stroke:none;stroke-width:8.93878078;stroke-linecap:square;stroke-linejoin:miter;stroke-miterlimit:4;stroke-dasharray:none;stroke-dashoffset:0;stroke-opacity:1;paint-order:markers stroke fill"
       transform="rotate(90)" />
    <circle
       style="opacity:1;fill:#ffffff;fill-opacity:1;fill-rule:evenodd;stroke:none;stroke-width:19.32274437;stroke-linecap:square;stroke-linejoin:miter;stroke-miterlimit:4;stroke-dasharray:none;stroke-dashoffset:0;stroke-opacity:1;paint-order:markers stroke fill"
       id="circle2536"
       cx="17.822725"
       cy="-267.26291"
       r="32.204575"
       transform="rotate(90)" />
    <circle
       style="opacity:1;fill:#ffffff;fill-opacity:1;fill-rule:evenodd;stroke:none;stroke-width:8.93878078;stroke-linecap:square;stroke-linejoin:miter;stroke-miterlimit:4;stroke-dasharray:none;stroke-dashoffset:0;stroke-opacity:1;paint-order:markers stroke fill"
       id="circle2538"
       cx="486.9707"
       cy="-308.15732"
       r="14.897968"
       transform="rotate(90)" />
    <circle
       r="14.897968"
       cy="-409.25067"
       cx="471.00858"
       id="circle2540"
       style="opacity:1;fill:#ffffff;fill-opacity:1;fill-rule:evenodd;stroke:none;stroke-width:8.93878078;stroke-linecap:square;stroke-linejoin:miter;stroke-miterlimit:4;stroke-dasharray:none;stroke-dashoffset:0;stroke-opacity:1;paint-order:markers stroke fill"
       transform="rotate(90)" />
    <circle
       style="opacity:1;fill:#ffffff;fill-opacity:1;fill-rule:evenodd;stroke:none;stroke-width:8.93878078;stroke-linecap:square;stroke-linejoin:miter;stroke-miterlimit:4;stroke-dasharray:none;stroke-dashoffset:0;stroke-opacity:1;paint-order:markers stroke fill"
       id="circle2542"
       cx="497.08002"
       cy="-409.78275"
       r="14.897968"
       transform="rotate(90)" />
    <circle
       r="14.897968"
       cy="-477.88776"
       cx="483.77823"
       id="circle2544"
       style="opacity:1;fill:#ffffff;fill-opacity:1;fill-rule:evenodd;stroke:none;stroke-width:8.93878078;stroke-linecap:square;stroke-linejoin:miter;stroke-miterlimit:4;stroke-dasharray:none;stroke-dashoffset:0;stroke-opacity:1;paint-order:markers stroke fill"
       transform="rotate(90)" />
    <circle
       style="opacity:1;fill:#ffffff;fill-opacity:1;fill-rule:evenodd;stroke:none;stroke-width:8.93878078;stroke-linecap:square;stroke-linejoin:miter;stroke-miterlimit:4;stroke-dasharray:none;stroke-dashoffset:0;stroke-opacity:1;paint-order:markers stroke fill"
       id="circle2546"
       cx="442.80884"
       cy="-491.18948"
       r="14.897968"
       transform="rotate(90)" />
    <circle
       style="opacity:1;fill:#333333;fill-opacity:1;fill-rule:evenodd;stroke:none;stroke-width:8.93878078;stroke-linecap:square;stroke-linejoin:miter;stroke-miterlimit:4;stroke-dasharray:none;stroke-dashoffset:0;stroke-opacity:1;paint-order:markers stroke fill"
       id="path2689"
       cx="35.911484"
       cy="282.71033"
       r="10.428576" />
    <circle
       r="10.428576"
       cy="17.822725"
       cx="267.26291"
       id="circle1081"
       style="opacity:1;fill:#333333;fill-opacity:1;fill-rule:evenodd;stroke:none;stroke-width:8.93878078;stroke-linecap:square;stroke-linejoin:miter;stroke-miterlimit:4;stroke-dasharray:none;stroke-dashoffset:0;stroke-opacity:1;paint-order:markers stroke fill" />
  </g>
</svg>
